<?xml version="1.0" encoding="UTF-8" standalone="no"?>
<!-- Created with Inkscape (http://www.inkscape.org/) -->

<svg
   xmlns:dc="http://purl.org/dc/elements/1.1/"
   xmlns:cc="http://creativecommons.org/ns#"
   xmlns:rdf="http://www.w3.org/1999/02/22-rdf-syntax-ns#"
   xmlns:svg="http://www.w3.org/2000/svg"
   xmlns="http://www.w3.org/2000/svg"
   xmlns:sodipodi="http://sodipodi.sourceforge.net/DTD/sodipodi-0.dtd"
   xmlns:inkscape="http://www.inkscape.org/namespaces/inkscape"
   id="svg2"
   version="1.1"
   inkscape:version="0.48.5 r10040"
   width="1080.8163"
   height="59.819375"
   xml:space="preserve"
   sodipodi:docname="pata-inspira-crea-transforma.svg"><metadata
     id="metadata8"><rdf:RDF><cc:Work
         rdf:about=""><dc:format>image/svg+xml</dc:format><dc:type
           rdf:resource="http://purl.org/dc/dcmitype/StillImage" /><dc:title /></cc:Work></rdf:RDF></metadata><defs
     id="defs6"><clipPath
       clipPathUnits="userSpaceOnUse"
       id="clipPath22"><path
         d="m 0,47.855 864.653,0 L 864.653,0 0,0 0,47.855 z"
         id="path24" /></clipPath></defs><sodipodi:namedview
     pagecolor="#ffffff"
     bordercolor="#666666"
     borderopacity="1"
     objecttolerance="10"
     gridtolerance="10"
     guidetolerance="10"
     inkscape:pageopacity="0"
     inkscape:pageshadow="2"
     inkscape:window-width="1366"
     inkscape:window-height="671"
     id="namedview4"
     showgrid="false"
     inkscape:zoom="0.37379156"
     inkscape:cx="540.40815"
     inkscape:cy="29.909687"
     inkscape:window-x="0"
     inkscape:window-y="25"
     inkscape:window-maximized="1"
     inkscape:current-layer="g10" /><g
     id="g10"
     inkscape:groupmode="layer"
     inkscape:label="pata-inspira-crea-transforma"
     transform="matrix(1.25,0,0,-1.25,0,59.819375)"><path
       d="m 0,0 864.653,0 0,47.856 L 0,47.856 0,0 z"
       style="fill:#02385c;fill-opacity:1;fill-rule:nonzero;stroke:none"
       id="path12" /><g
       id="g14"
       transform="translate(47.1934,34.2578)"><path
         d="m 0,0 1.793,0 1.805,0 0,-17.225 -1.793,0 -1.805,0 L 0,0 z"
         style="fill:#ffffff;fill-opacity:1;fill-rule:nonzero;stroke:none"
         id="path16" /></g><g
       id="g18"><g
         id="g20"
         clip-path="url(#clipPath22)"><g
           id="g26"
           transform="translate(53.9053,29.7822)"><path
             d="m 0,0 1.594,0 1.605,0 0,-1.887 c 0.132,0.227 0.277,0.442 0.434,0.645 0.827,1.055 2.03,1.582 3.608,1.582 1.344,0 2.397,-0.399 3.158,-1.195 0.762,-0.797 1.143,-1.903 1.143,-3.317 l 0,-8.577 -1.676,0 -1.687,0 0,7.968 c 0,0.789 -0.17,1.373 -0.51,1.752 -0.34,0.379 -0.861,0.568 -1.565,0.568 -0.882,0 -1.56,-0.266 -2.033,-0.797 C 3.599,-3.789 3.363,-4.555 3.363,-5.555 l 0,-7.194 -1.676,0 -1.687,0 L 0,0 z"
             style="fill:#ffffff;fill-opacity:1;fill-rule:nonzero;stroke:none"
             id="path28" /></g><g
           id="g30"
           transform="translate(75.5713,25.9619)"><path
             d="m 0,0 c 0,0.492 -0.203,0.887 -0.609,1.184 -0.407,0.296 -0.947,0.445 -1.619,0.445 -0.648,0 -1.155,-0.111 -1.518,-0.334 -0.363,-0.223 -0.545,-0.533 -0.545,-0.932 0,-0.281 0.207,-0.523 0.621,-0.726 0.406,-0.196 1.129,-0.41 2.168,-0.645 2.063,-0.461 3.442,-0.965 4.138,-1.512 0.697,-0.546 1.046,-1.405 1.046,-2.577 0,-1.25 -0.506,-2.256 -1.518,-3.017 -1.012,-0.762 -2.347,-1.143 -4.003,-1.143 -1.961,0 -3.471,0.375 -4.529,1.125 -1.059,0.75 -1.623,1.844 -1.694,3.281 l 3.422,0 c 0.024,-0.586 0.284,-1.045 0.78,-1.377 0.496,-0.332 1.17,-0.498 2.021,-0.498 0.672,0 1.197,0.116 1.576,0.346 0.379,0.231 0.569,0.553 0.569,0.967 0,0.289 -0.183,0.534 -0.55,0.738 -0.367,0.195 -1.012,0.394 -1.934,0.598 -2.157,0.483 -3.598,0.995 -4.325,1.534 -0.726,0.531 -1.088,1.356 -1.088,2.473 0,1.265 0.471,2.287 1.411,3.064 0.942,0.777 2.182,1.166 3.72,1.166 1.734,0 3.133,-0.381 4.194,-1.142 C 2.797,2.256 3.328,1.25 3.328,0 L 0,0 z"
             style="fill:#ffffff;fill-opacity:1;fill-rule:nonzero;stroke:none"
             id="path32" /></g><g
           id="g34"
           transform="translate(87.541,19.4707)"><path
             d="m 0,0 c 0.898,0 1.602,0.338 2.109,1.014 0.508,0.674 0.762,1.614 0.762,2.817 0,1.227 -0.252,2.186 -0.756,2.877 -0.504,0.691 -1.205,1.037 -2.103,1.037 -0.899,0 -1.6,-0.355 -2.104,-1.066 -0.503,-0.711 -0.755,-1.7 -0.755,-2.965 0,-1.164 0.252,-2.073 0.755,-2.73 C -1.588,0.328 -0.891,0 0,0 m -6.046,10.312 1.594,0 1.605,0 0,-1.887 0.223,0.316 c 0.905,1.274 2.101,1.91 3.585,1.91 1.617,0 2.916,-0.597 3.896,-1.793 0.981,-1.195 1.471,-2.769 1.471,-4.722 0,-2.07 -0.49,-3.738 -1.471,-5.003 -0.98,-1.266 -2.279,-1.899 -3.896,-1.899 -1.477,0 -2.668,0.594 -3.573,1.782 l -0.071,0.093 0,-6.539 -1.675,0 -1.688,0 0,17.742 z"
             style="fill:#ffffff;fill-opacity:1;fill-rule:nonzero;stroke:none"
             id="path36" /></g><g
           id="g38"
           transform="translate(96.1855,29.7822)"><path
             d="m 0,0 1.676,0 1.687,0 0,-12.749 -1.676,0 -1.687,0 L 0,0 z m -0.035,4.604 3.422,0 0,-3.116 -3.422,0 0,3.116 z"
             style="fill:#ffffff;fill-opacity:1;fill-rule:nonzero;stroke:none"
             id="path40" /></g><g
           id="g42"
           transform="translate(102.4912,29.7822)"><path
             d="m 0,0 1.594,0 1.605,0 0,-2.285 c 0.117,0.25 0.249,0.492 0.399,0.726 0.788,1.266 1.807,1.899 3.057,1.899 l 0.762,-0.012 0,-3.433 C 7.12,-3.074 6.784,-3.059 6.409,-3.059 5.386,-3.059 4.622,-3.313 4.118,-3.82 3.615,-4.328 3.363,-5.098 3.363,-6.129 l 0,-6.62 -1.676,0 -1.687,0 L 0,0 z"
             style="fill:#ffffff;fill-opacity:1;fill-rule:nonzero;stroke:none"
             id="path44" /></g><g
           id="g46"
           transform="translate(118.8896,21.7441)"><path
             d="M 0,0 0,1.464 C -0.391,1.245 -0.906,1.069 -1.547,0.937 L -2.789,0.702 C -3.375,0.593 -3.819,0.393 -4.124,0.1 c -0.305,-0.293 -0.457,-0.662 -0.457,-1.108 0,-0.508 0.136,-0.906 0.41,-1.195 0.273,-0.289 0.656,-0.434 1.148,-0.434 1.078,0 1.937,0.379 2.578,1.137 0.125,0.148 0.23,0.367 0.316,0.656 C -0.043,-0.556 0,-0.274 0,0 m -4.042,-5.039 c -1.18,0 -2.129,0.338 -2.848,1.014 -0.718,0.675 -1.078,1.564 -1.078,2.666 0,1.164 0.324,2.094 0.973,2.794 0.648,0.699 1.594,1.138 2.836,1.318 l 2.214,0.305 c 0.578,0.078 1.058,0.211 1.441,0.398 0.164,0.078 0.291,0.219 0.381,0.422 0.09,0.203 0.123,0.41 0.1,0.621 -0.047,0.359 -0.231,0.641 -0.551,0.844 -0.383,0.242 -0.934,0.363 -1.653,0.363 -0.64,0 -1.14,-0.156 -1.499,-0.469 C -4.085,4.925 -4.276,4.483 -4.3,3.913 l -3.222,0 c 0.07,1.492 0.578,2.609 1.523,3.352 0.945,0.742 2.332,1.113 4.159,1.113 1.586,0 2.838,-0.335 3.756,-1.003 C 2.834,6.706 3.293,5.793 3.293,4.637 l 0,-7.132 c 0,-0.57 0.047,-0.971 0.141,-1.202 0.093,-0.231 0.281,-0.412 0.562,-0.545 l 0,-0.012 0,-0.457 -1.816,0 -1.817,0 0,0.012 C 0.215,-4.184 0.117,-3.68 0.07,-3.188 l -0.011,0.024 c -1.055,-1.25 -2.422,-1.875 -4.101,-1.875"
             style="fill:#ffffff;fill-opacity:1;fill-rule:nonzero;stroke:none"
             id="path48" /></g><g
           id="g50"
           transform="translate(146.6602,23.0674)"><path
             d="m 0,0 c -0.219,-1.991 -0.998,-3.573 -2.337,-4.745 -1.34,-1.172 -3.045,-1.758 -5.115,-1.758 -2.422,0 -4.346,0.809 -5.771,2.426 -1.425,1.617 -2.138,3.804 -2.138,6.561 0,2.813 0.713,5.045 2.138,6.698 1.425,1.651 3.349,2.477 5.771,2.477 2.047,0 3.742,-0.553 5.086,-1.658 C -1.023,8.896 -0.234,7.398 0,5.508 l -3.597,0 c -0.117,0.929 -0.518,1.668 -1.203,2.215 -0.684,0.547 -1.554,0.82 -2.61,0.82 -1.338,0 -2.387,-0.533 -3.146,-1.6 -0.758,-1.066 -1.137,-2.545 -1.137,-4.435 0,-1.844 0.377,-3.286 1.131,-4.329 0.755,-1.043 1.806,-1.565 3.152,-1.565 1.056,0 1.926,0.305 2.61,0.914 0.685,0.61 1.086,1.433 1.203,2.472 L 0,0 z"
             style="fill:#ffffff;fill-opacity:1;fill-rule:nonzero;stroke:none"
             id="path52" /></g><g
           id="g54"
           transform="translate(149.0283,29.7822)"><path
             d="m 0,0 1.594,0 1.605,0 0,-2.285 c 0.117,0.25 0.249,0.492 0.399,0.726 0.788,1.266 1.807,1.899 3.057,1.899 l 0.762,-0.012 0,-3.433 C 7.12,-3.074 6.784,-3.059 6.409,-3.059 5.386,-3.059 4.622,-3.313 4.118,-3.82 3.615,-4.328 3.363,-5.098 3.363,-6.129 l 0,-6.62 -1.676,0 -1.687,0 L 0,0 z"
             style="fill:#ffffff;fill-opacity:1;fill-rule:nonzero;stroke:none"
             id="path56" /></g><g
           id="g58"
           transform="translate(166.0615,24.7197)"><path
             d="m 0,0 c -0.078,0.766 -0.281,1.363 -0.609,1.793 -0.43,0.57 -1.098,0.855 -2.004,0.855 -0.867,0 -1.528,-0.332 -1.98,-0.996 C -4.874,1.23 -5.078,0.68 -5.202,0 L 0,0 z m -2.566,-8.015 c -1.938,0 -3.431,0.598 -4.482,1.793 -1.051,1.196 -1.576,2.899 -1.576,5.109 0,2.039 0.535,3.634 1.605,4.787 1.071,1.152 2.555,1.728 4.453,1.728 1.945,0 3.443,-0.588 4.494,-1.763 C 2.979,2.463 3.504,0.789 3.504,-1.383 3.52,-1.633 3.5,-1.887 3.445,-2.145 l -8.682,0 c 0.077,-1.006 0.3,-1.76 0.668,-2.26 0.468,-0.625 1.249,-0.938 2.342,-0.938 0.508,0 0.979,0.145 1.413,0.434 0.433,0.289 0.693,0.637 0.779,1.043 l 3.422,0 C 3.098,-5.163 2.428,-6.179 1.377,-6.913 0.326,-7.647 -0.988,-8.015 -2.566,-8.015"
             style="fill:#ffffff;fill-opacity:1;fill-rule:nonzero;stroke:none"
             id="path60" /></g><g
           id="g62"
           transform="translate(178.8926,21.7441)"><path
             d="M 0,0 0,1.464 C -0.391,1.245 -0.906,1.069 -1.547,0.937 L -2.789,0.702 C -3.375,0.593 -3.819,0.393 -4.124,0.1 c -0.305,-0.293 -0.457,-0.662 -0.457,-1.108 0,-0.508 0.136,-0.906 0.41,-1.195 0.273,-0.289 0.656,-0.434 1.148,-0.434 1.078,0 1.937,0.379 2.578,1.137 0.125,0.148 0.23,0.367 0.316,0.656 C -0.043,-0.556 0,-0.274 0,0 m -4.042,-5.039 c -1.18,0 -2.129,0.338 -2.848,1.014 -0.718,0.675 -1.078,1.564 -1.078,2.666 0,1.164 0.324,2.094 0.973,2.794 0.648,0.699 1.594,1.138 2.836,1.318 l 2.214,0.305 c 0.578,0.078 1.058,0.211 1.441,0.398 0.164,0.078 0.291,0.219 0.381,0.422 0.09,0.203 0.123,0.41 0.1,0.621 -0.047,0.359 -0.231,0.641 -0.551,0.844 -0.383,0.242 -0.934,0.363 -1.653,0.363 -0.64,0 -1.14,-0.156 -1.499,-0.469 C -4.085,4.925 -4.276,4.483 -4.3,3.913 l -3.222,0 c 0.07,1.492 0.578,2.609 1.523,3.352 0.945,0.742 2.332,1.113 4.159,1.113 1.586,0 2.838,-0.335 3.756,-1.003 C 2.834,6.706 3.293,5.793 3.293,4.637 l 0,-7.132 c 0,-0.57 0.047,-0.971 0.141,-1.202 0.093,-0.231 0.281,-0.412 0.562,-0.545 l 0,-0.012 0,-0.457 -1.816,0 -1.817,0 0,0.012 C 0.215,-4.184 0.117,-3.68 0.07,-3.188 l -0.011,0.024 c -1.055,-1.25 -2.422,-1.875 -4.101,-1.875"
             style="fill:#ffffff;fill-opacity:1;fill-rule:nonzero;stroke:none"
             id="path64" /></g><g
           id="g66"
           transform="translate(195.7891,31.2002)"><path
             d="m 0,0 -5.202,0 0,1.523 0,1.535 14.003,0 0,-1.523 0,-1.535 -5.203,0 0,-14.167 -1.793,0 -1.805,0 L 0,0 z"
             style="fill:#ffffff;fill-opacity:1;fill-rule:nonzero;stroke:none"
             id="path68" /></g><g
           id="g70"
           transform="translate(204.5098,29.7822)"><path
             d="m 0,0 1.594,0 1.605,0 0,-2.285 c 0.117,0.25 0.249,0.492 0.399,0.726 0.788,1.266 1.807,1.899 3.057,1.899 l 0.762,-0.012 0,-3.433 C 7.12,-3.074 6.784,-3.059 6.409,-3.059 5.386,-3.059 4.622,-3.313 4.118,-3.82 3.615,-4.328 3.363,-5.098 3.363,-6.129 l 0,-6.62 -1.676,0 -1.687,0 L 0,0 z"
             style="fill:#ffffff;fill-opacity:1;fill-rule:nonzero;stroke:none"
             id="path72" /></g><g
           id="g74"
           transform="translate(220.9082,21.7441)"><path
             d="M 0,0 0,1.464 C -0.391,1.245 -0.906,1.069 -1.547,0.937 L -2.789,0.702 C -3.375,0.593 -3.819,0.393 -4.124,0.1 c -0.305,-0.293 -0.457,-0.662 -0.457,-1.108 0,-0.508 0.136,-0.906 0.41,-1.195 0.273,-0.289 0.656,-0.434 1.148,-0.434 1.078,0 1.937,0.379 2.578,1.137 0.125,0.148 0.23,0.367 0.316,0.656 C -0.043,-0.556 0,-0.274 0,0 m -4.042,-5.039 c -1.18,0 -2.129,0.338 -2.848,1.014 -0.718,0.675 -1.078,1.564 -1.078,2.666 0,1.164 0.324,2.094 0.973,2.794 0.648,0.699 1.594,1.138 2.836,1.318 l 2.214,0.305 c 0.578,0.078 1.058,0.211 1.441,0.398 0.164,0.078 0.291,0.219 0.381,0.422 0.09,0.203 0.123,0.41 0.1,0.621 -0.047,0.359 -0.231,0.641 -0.551,0.844 -0.383,0.242 -0.934,0.363 -1.653,0.363 -0.64,0 -1.14,-0.156 -1.499,-0.469 C -4.085,4.925 -4.276,4.483 -4.3,3.913 l -3.222,0 c 0.07,1.492 0.578,2.609 1.523,3.352 0.945,0.742 2.332,1.113 4.159,1.113 1.586,0 2.838,-0.335 3.756,-1.003 C 2.834,6.706 3.293,5.793 3.293,4.637 l 0,-7.132 c 0,-0.57 0.047,-0.971 0.141,-1.202 0.093,-0.231 0.281,-0.412 0.562,-0.545 l 0,-0.012 0,-0.457 -1.816,0 -1.817,0 0,0.012 C 0.215,-4.184 0.117,-3.68 0.07,-3.188 l -0.011,0.024 c -1.055,-1.25 -2.422,-1.875 -4.101,-1.875"
             style="fill:#ffffff;fill-opacity:1;fill-rule:nonzero;stroke:none"
             id="path76" /></g><g
           id="g78"
           transform="translate(227.0508,29.7822)"><path
             d="m 0,0 1.594,0 1.605,0 0,-1.887 c 0.132,0.227 0.277,0.442 0.434,0.645 0.827,1.055 2.03,1.582 3.608,1.582 1.344,0 2.397,-0.399 3.158,-1.195 0.762,-0.797 1.143,-1.903 1.143,-3.317 l 0,-8.577 -1.676,0 -1.687,0 0,7.968 c 0,0.789 -0.17,1.373 -0.51,1.752 -0.34,0.379 -0.861,0.568 -1.565,0.568 -0.882,0 -1.56,-0.266 -2.033,-0.797 C 3.599,-3.789 3.363,-4.555 3.363,-5.555 l 0,-7.194 -1.676,0 -1.687,0 L 0,0 z"
             style="fill:#ffffff;fill-opacity:1;fill-rule:nonzero;stroke:none"
             id="path80" /></g><g
           id="g82"
           transform="translate(248.7168,25.9619)"><path
             d="m 0,0 c 0,0.492 -0.203,0.887 -0.609,1.184 -0.407,0.296 -0.947,0.445 -1.619,0.445 -0.648,0 -1.155,-0.111 -1.518,-0.334 -0.363,-0.223 -0.545,-0.533 -0.545,-0.932 0,-0.281 0.207,-0.523 0.621,-0.726 0.406,-0.196 1.129,-0.41 2.168,-0.645 2.063,-0.461 3.442,-0.965 4.138,-1.512 0.697,-0.546 1.046,-1.405 1.046,-2.577 0,-1.25 -0.506,-2.256 -1.518,-3.017 -1.012,-0.762 -2.347,-1.143 -4.003,-1.143 -1.961,0 -3.471,0.375 -4.529,1.125 -1.059,0.75 -1.623,1.844 -1.694,3.281 l 3.422,0 c 0.024,-0.586 0.284,-1.045 0.78,-1.377 0.496,-0.332 1.17,-0.498 2.021,-0.498 0.672,0 1.197,0.116 1.576,0.346 0.379,0.231 0.569,0.553 0.569,0.967 0,0.289 -0.183,0.534 -0.55,0.738 -0.367,0.195 -1.012,0.394 -1.934,0.598 -2.157,0.483 -3.598,0.995 -4.325,1.534 -0.726,0.531 -1.088,1.356 -1.088,2.473 0,1.265 0.471,2.287 1.411,3.064 0.942,0.777 2.182,1.166 3.72,1.166 1.734,0 3.133,-0.381 4.194,-1.142 C 2.797,2.256 3.328,1.25 3.328,0 L 0,0 z"
             style="fill:#ffffff;fill-opacity:1;fill-rule:nonzero;stroke:none"
             id="path84" /></g><g
           id="g86"
           transform="translate(258.6602,27.4268)"><path
             d="m 0,0 0,-10.394 -1.675,0 -1.687,0 0,10.394 -1.864,0 0,2.355 1.864,0 0,1.067 c 0,1.225 0.326,2.14 0.978,2.741 0.653,0.602 1.642,0.902 2.97,0.902 C 1.18,7.073 1.707,7.046 2.168,6.983 l 0,-2.682 -1.066,0 C 0.656,4.301 0.361,4.211 0.217,4.031 0.072,3.852 0,3.484 0,2.93 l 0,-0.575 2.168,0 L 2.168,0 0,0 z"
             style="fill:#ffffff;fill-opacity:1;fill-rule:nonzero;stroke:none"
             id="path88" /></g><g
           id="g90"
           transform="translate(270.4902,20.502)"><path
             d="m 0,0 c 0.523,0.656 0.785,1.612 0.785,2.87 0,1.289 -0.262,2.268 -0.785,2.936 -0.523,0.668 -1.285,1.002 -2.285,1.002 -1,0 -1.76,-0.334 -2.278,-1.002 -0.521,-0.668 -0.78,-1.647 -0.78,-2.936 0,-1.258 0.259,-2.214 0.78,-2.87 0.518,-0.656 1.278,-0.984 2.278,-0.984 1,0 1.762,0.328 2.285,0.984 M -7.036,-2.004 C -8.212,-0.809 -8.8,0.804 -8.8,2.835 c 0,2.078 0.588,3.728 1.764,4.951 1.176,1.223 2.759,1.834 4.751,1.834 2.008,0 3.597,-0.611 4.769,-1.834 1.172,-1.223 1.758,-2.873 1.758,-4.951 0,-2.031 -0.586,-3.644 -1.758,-4.839 -1.172,-1.195 -2.761,-1.793 -4.769,-1.793 -1.992,0 -3.575,0.598 -4.751,1.793"
             style="fill:#ffffff;fill-opacity:1;fill-rule:nonzero;stroke:none"
             id="path92" /></g><g
           id="g94"
           transform="translate(276.959,29.7822)"><path
             d="m 0,0 1.594,0 1.605,0 0,-2.285 c 0.117,0.25 0.249,0.492 0.399,0.726 0.788,1.266 1.807,1.899 3.057,1.899 l 0.762,-0.012 0,-3.433 C 7.12,-3.074 6.784,-3.059 6.409,-3.059 5.386,-3.059 4.622,-3.313 4.118,-3.82 3.615,-4.328 3.363,-5.098 3.363,-6.129 l 0,-6.62 -1.676,0 -1.687,0 L 0,0 z"
             style="fill:#ffffff;fill-opacity:1;fill-rule:nonzero;stroke:none"
             id="path96" /></g><g
           id="g98"
           transform="translate(286.0723,29.7822)"><path
             d="m 0,0 1.594,0 1.605,0 0,-2.051 c 0.148,0.36 0.335,0.68 0.562,0.961 0.74,0.953 1.816,1.43 3.228,1.43 1.123,0 2.043,-0.379 2.761,-1.137 0.28,-0.289 0.503,-0.609 0.667,-0.961 l 0.41,0.668 c 0.696,0.953 1.71,1.43 3.04,1.43 1.385,0 2.468,-0.41 3.25,-1.231 0.782,-0.82 1.174,-1.957 1.174,-3.41 l 0,-8.448 -1.676,0 -1.687,0 0,7.487 c 0,0.953 -0.157,1.658 -0.47,2.116 -0.313,0.457 -0.799,0.685 -1.457,0.685 -0.705,0 -1.244,-0.217 -1.616,-0.65 -0.372,-0.434 -0.558,-1.057 -0.558,-1.869 l 0,-7.769 -1.676,0 -1.687,0 0,8.038 c 0,0.766 -0.163,1.332 -0.49,1.699 -0.328,0.367 -0.83,0.551 -1.508,0.551 -0.678,0 -1.197,-0.217 -1.56,-0.65 C 3.544,-3.545 3.363,-4.168 3.363,-4.98 l 0,-7.769 -1.676,0 -1.687,0 L 0,0 z"
             style="fill:#ffffff;fill-opacity:1;fill-rule:nonzero;stroke:none"
             id="path100" /></g><g
           id="g102"
           transform="translate(314.4551,21.7441)"><path
             d="M 0,0 0,1.464 C -0.391,1.245 -0.906,1.069 -1.547,0.937 L -2.789,0.702 C -3.375,0.593 -3.819,0.393 -4.124,0.1 c -0.305,-0.293 -0.457,-0.662 -0.457,-1.108 0,-0.508 0.136,-0.906 0.41,-1.195 0.273,-0.289 0.656,-0.434 1.148,-0.434 1.078,0 1.937,0.379 2.578,1.137 0.125,0.148 0.23,0.367 0.316,0.656 C -0.043,-0.556 0,-0.274 0,0 m -4.042,-5.039 c -1.18,0 -2.129,0.338 -2.848,1.014 -0.718,0.675 -1.078,1.564 -1.078,2.666 0,1.164 0.324,2.094 0.973,2.794 0.648,0.699 1.594,1.138 2.836,1.318 l 2.214,0.305 c 0.578,0.078 1.058,0.211 1.441,0.398 0.164,0.078 0.291,0.219 0.381,0.422 0.09,0.203 0.123,0.41 0.1,0.621 -0.047,0.359 -0.231,0.641 -0.551,0.844 -0.383,0.242 -0.934,0.363 -1.653,0.363 -0.64,0 -1.14,-0.156 -1.499,-0.469 C -4.085,4.925 -4.276,4.483 -4.3,3.913 l -3.222,0 c 0.07,1.492 0.578,2.609 1.523,3.352 0.945,0.742 2.332,1.113 4.159,1.113 1.586,0 2.838,-0.335 3.756,-1.003 C 2.834,6.706 3.293,5.793 3.293,4.637 l 0,-7.132 c 0,-0.57 0.047,-0.971 0.141,-1.202 0.093,-0.231 0.281,-0.412 0.562,-0.545 l 0,-0.012 0,-0.457 -1.816,0 -1.817,0 0,0.012 C 0.215,-4.184 0.117,-3.68 0.07,-3.188 l -0.011,0.024 c -1.055,-1.25 -2.422,-1.875 -4.101,-1.875"
             style="fill:#ffffff;fill-opacity:1;fill-rule:nonzero;stroke:none"
             id="path104" /></g><g
           id="g106"
           transform="translate(698.4395,24.665)"><path
             d="m 0,0 1.896,0 0.864,-5.429 0.026,0 0.918,5.429 2.057,0 0.977,-5.429 0.028,0 0.89,5.429 1.809,0 -1.587,-7.63 -2.157,0 -0.972,5.429 -0.026,0 -0.918,-5.429 -2.198,0 L 0,0 z"
             style="fill:#ffffff;fill-opacity:1;fill-rule:nonzero;stroke:none"
             id="path108" /></g><g
           id="g110"
           transform="translate(709.8359,24.665)"><path
             d="m 0,0 1.896,0 0.864,-5.429 0.027,0 0.918,5.429 2.057,0 0.977,-5.429 0.027,0 L 7.657,0 9.466,0 7.879,-7.63 l -2.158,0 -0.971,5.429 -0.027,0 -0.918,-5.429 -2.198,0 L 0,0 z"
             style="fill:#ffffff;fill-opacity:1;fill-rule:nonzero;stroke:none"
             id="path112" /></g><g
           id="g114"
           transform="translate(721.2324,24.665)"><path
             d="m 0,0 1.896,0 0.864,-5.429 0.027,0 0.918,5.429 2.057,0 0.977,-5.429 0.027,0 L 7.657,0 9.466,0 7.879,-7.63 l -2.158,0 -0.971,5.429 -0.027,0 -0.918,-5.429 -2.198,0 L 0,0 z"
             style="fill:#ffffff;fill-opacity:1;fill-rule:nonzero;stroke:none"
             id="path116" /></g><path
           d="m 735.085,17.035 -1.812,0 0,2.201 1.812,0 0,-2.201 z"
           style="fill:#ffffff;fill-opacity:1;fill-rule:nonzero;stroke:none"
           id="path118" /><g
           id="g120"
           transform="translate(741.5352,21.7148)"><path
             d="M 0,0 C 0,0.587 -0.065,1.035 -0.195,1.345 -0.324,1.658 -0.582,1.815 -0.967,1.815 -1.334,1.807 -1.588,1.645 -1.731,1.331 -1.879,1.021 -1.949,0.677 -1.939,0.298 L -1.939,0 0,0 z m -1.939,-1.161 0,-0.612 c 0,-0.454 0.074,-0.857 0.221,-1.209 0.134,-0.371 0.371,-0.561 0.711,-0.57 0.595,0 0.931,0.48 1.007,1.439 l 1.704,0 c -0.04,-1.826 -0.934,-2.749 -2.683,-2.768 -0.673,0.01 -1.204,0.139 -1.587,0.388 -0.395,0.245 -0.683,0.561 -0.866,0.949 -0.174,0.406 -0.287,0.845 -0.336,1.315 -0.045,0.485 -0.066,0.962 -0.066,1.434 0,0.522 0.037,1.018 0.113,1.488 0.073,0.476 0.208,0.896 0.409,1.26 0.202,0.37 0.499,0.663 0.892,0.88 0.394,0.208 0.901,0.312 1.523,0.312 C 0.193,3.135 0.922,2.787 1.289,2.099 1.646,1.407 1.82,0.465 1.812,-0.726 l 0,-0.435 -3.751,0 z"
             style="fill:#ffffff;fill-opacity:1;fill-rule:nonzero;stroke:none"
             id="path122" /></g><g
           id="g124"
           transform="translate(749.5127,20.8477)"><path
             d="m 0,0 c -0.3,-0.199 -0.587,-0.326 -0.862,-0.382 -0.774,-0.152 -1.151,-0.566 -1.132,-1.241 0,-0.291 0.061,-0.536 0.184,-0.735 0.12,-0.218 0.309,-0.327 0.571,-0.327 0.295,0 0.572,0.095 0.834,0.285 0.259,0.189 0.396,0.488 0.405,0.895 L 0,0 z m -3.571,1.478 0,0.179 c 0.009,0.873 0.271,1.489 0.787,1.849 0.492,0.347 1.113,0.515 1.861,0.506 0.57,0 1.041,-0.051 1.416,-0.153 C 0.68,3.804 0.845,3.737 0.985,3.658 1.113,3.575 1.226,3.477 1.321,3.361 1.517,3.162 1.651,2.922 1.725,2.641 1.771,2.498 1.8,2.35 1.813,2.197 l 0,-0.518 0,-4.017 C 1.8,-2.961 1.878,-3.452 2.046,-3.813 l -1.813,0 c -0.111,0.254 -0.189,0.52 -0.234,0.796 l -0.027,0 c -0.223,-0.387 -0.492,-0.648 -0.805,-0.782 -0.317,-0.142 -0.714,-0.215 -1.188,-0.215 -0.652,0.019 -1.109,0.261 -1.372,0.727 -0.286,0.433 -0.424,0.92 -0.415,1.459 0,0.706 0.157,1.238 0.471,1.598 0.309,0.35 0.794,0.611 1.457,0.781 l 1.106,0.298 C -0.483,0.932 -0.276,1.04 -0.151,1.174 -0.051,1.294 0,1.482 0,1.74 0.009,2.359 -0.302,2.674 -0.935,2.683 -1.558,2.664 -1.87,2.334 -1.87,1.692 l 0,-0.214 -1.701,0 z"
             style="fill:#ffffff;fill-opacity:1;fill-rule:nonzero;stroke:none"
             id="path126" /></g><g
           id="g128"
           transform="translate(754.6055,23.3369)"><path
             d="m 0,0 -0.965,0 0,1.328 0.965,0 0,0.866 C 0,2.873 0.178,3.348 0.535,3.62 0.88,3.888 1.36,4.022 1.978,4.022 2.313,4.022 2.65,4.008 2.99,3.98 l 0,-1.383 C 2.869,2.605 2.747,2.61 2.623,2.61 2.119,2.619 1.876,2.415 1.895,1.997 l 0,-0.669 1.095,0 0,-1.328 -1.095,0 0,-6.302 L 0,-6.302 0,0 z"
             style="fill:#ffffff;fill-opacity:1;fill-rule:nonzero;stroke:none"
             id="path130" /></g><path
           d="m 759.87,24.665 1.896,0 0,-7.63 -1.896,0 0,7.63 z m 0,2.61 1.896,0 0,-1.675 -1.896,0 0,1.675 z"
           style="fill:#ffffff;fill-opacity:1;fill-rule:nonzero;stroke:none"
           id="path132" /><g
           id="g134"
           transform="translate(765.0312,26.8467)"><path
             d="m 0,0 1.895,0 0,-2.182 1.096,0 0,-1.328 -1.096,0 0,-4.134 c 0,-0.291 0.046,-0.499 0.14,-0.624 0.09,-0.143 0.268,-0.214 0.535,-0.214 0.152,0 0.291,0.011 0.421,0.034 l 0,-1.364 C 2.598,-9.857 2.187,-9.886 1.758,-9.895 1.033,-9.895 0.557,-9.749 0.329,-9.458 0.101,-9.153 -0.01,-8.626 0,-7.877 l 0,4.367 -0.965,0 0,1.328 0.965,0 L 0,0 z"
             style="fill:#ffffff;fill-opacity:1;fill-rule:nonzero;stroke:none"
             id="path136" /></g><path
           d="m 772.15,17.035 -1.812,0 0,2.201 1.812,0 0,-2.201 z"
           style="fill:#ffffff;fill-opacity:1;fill-rule:nonzero;stroke:none"
           id="path138" /><g
           id="g140"
           transform="translate(778.5996,21.7148)"><path
             d="m 0,0 c 0,0.587 -0.064,1.035 -0.194,1.345 -0.13,0.313 -0.388,0.47 -0.772,0.47 C -1.333,1.807 -1.588,1.645 -1.73,1.331 -1.879,1.021 -1.948,0.677 -1.939,0.298 L -1.939,0 0,0 z m -1.939,-1.161 0,-0.612 c 0,-0.454 0.074,-0.857 0.222,-1.209 0.133,-0.371 0.371,-0.561 0.711,-0.57 0.594,0 0.93,0.48 1.006,1.439 l 1.705,0 c -0.041,-1.826 -0.934,-2.749 -2.683,-2.768 -0.674,0.01 -1.204,0.139 -1.588,0.388 -0.394,0.245 -0.682,0.561 -0.866,0.949 -0.173,0.406 -0.286,0.845 -0.336,1.315 -0.044,0.485 -0.066,0.962 -0.066,1.434 0,0.522 0.038,1.018 0.114,1.488 0.072,0.476 0.208,0.896 0.409,1.26 0.202,0.37 0.498,0.663 0.892,0.88 0.394,0.208 0.901,0.312 1.523,0.312 C 0.193,3.135 0.922,2.787 1.289,2.099 1.646,1.407 1.821,0.465 1.812,-0.726 l 0,-0.435 -3.751,0 z"
             style="fill:#ffffff;fill-opacity:1;fill-rule:nonzero;stroke:none"
             id="path142" /></g><g
           id="g144"
           transform="translate(784.7354,20.8535)"><path
             d="m 0,0 c -0.009,-0.823 0.056,-1.447 0.194,-1.872 0.131,-0.431 0.397,-0.646 0.8,-0.646 0.411,0 0.685,0.215 0.819,0.646 0.122,0.425 0.182,1.049 0.182,1.872 0,0.832 -0.06,1.461 -0.182,1.887 C 1.751,2.095 1.649,2.257 1.511,2.372 1.386,2.465 1.214,2.511 0.994,2.511 0.591,2.511 0.325,2.303 0.194,1.887 0.056,1.461 -0.009,0.832 0,0 m 2.075,-3.014 -0.027,0 C 1.654,-3.693 1.095,-4.028 0.369,-4.02 c -1.518,-0.036 -2.272,1.302 -2.264,4.017 0,1.407 0.189,2.433 0.564,3.074 0.363,0.632 0.93,0.944 1.7,0.935 0.69,0 1.222,-0.301 1.599,-0.902 l 0.027,0 0,3.201 1.895,0 0,-10.123 -1.815,0 0,0.804 z"
             style="fill:#ffffff;fill-opacity:1;fill-rule:nonzero;stroke:none"
             id="path146" /></g><g
           id="g148"
           transform="translate(795.4326,17.9229)"><path
             d="m 0,0 -0.026,0 c -0.457,-0.726 -1.124,-1.089 -2,-1.089 -1.237,-0.009 -1.864,0.716 -1.881,2.175 l 0,5.656 1.894,0 0,-5.263 c -0.009,-0.729 0.28,-1.084 0.866,-1.066 0.702,0 1.057,0.423 1.066,1.268 l 0,5.061 1.896,0 0,-7.63 L 0,-0.888 0,0 z"
             style="fill:#ffffff;fill-opacity:1;fill-rule:nonzero;stroke:none"
             id="path150" /></g><path
           d="m 801.951,17.035 -1.812,0 0,2.201 1.812,0 0,-2.201 z"
           style="fill:#ffffff;fill-opacity:1;fill-rule:nonzero;stroke:none"
           id="path152" /><g
           id="g154"
           transform="translate(808.4014,21.9082)"><path
             d="m 0,0 c 0,0.388 -0.052,0.739 -0.154,1.054 -0.12,0.314 -0.354,0.476 -0.699,0.485 -0.451,0 -0.744,-0.215 -0.878,-0.644 -0.148,-0.435 -0.217,-1.092 -0.207,-1.97 -0.01,-0.93 0.054,-1.607 0.193,-2.032 0.135,-0.435 0.408,-0.647 0.819,-0.638 C -0.309,-3.754 0,-3.158 0,-1.956 l 1.812,0 c 0.028,-2.06 -0.911,-3.1 -2.817,-3.118 -0.942,-0.009 -1.646,0.279 -2.111,0.866 -0.479,0.595 -0.718,1.645 -0.718,3.15 0.009,1.551 0.293,2.615 0.852,3.192 0.549,0.554 1.264,0.826 2.145,0.817 C 0.92,2.905 1.804,1.921 1.812,0 L 0,0 z"
             style="fill:#ffffff;fill-opacity:1;fill-rule:nonzero;stroke:none"
             id="path156" /></g><g
           id="g158"
           transform="translate(814.4687,20.8467)"><path
             d="M 0,0 C -0.01,-0.795 0.046,-1.436 0.168,-1.921 0.283,-2.42 0.566,-2.675 1.014,-2.684 1.399,-2.692 1.67,-2.48 1.827,-2.046 1.966,-1.63 2.035,-0.947 2.035,0 2.035,0.948 1.966,1.639 1.827,2.073 1.67,2.48 1.399,2.684 1.014,2.684 0.566,2.675 0.283,2.428 0.168,1.941 0.1,1.706 0.058,1.424 0.039,1.096 0.013,0.763 0,0.397 0,0 M -1.896,0 C -1.951,2.656 -0.98,3.994 1.014,4.013 2.131,4.036 2.906,3.71 3.34,3.036 3.742,2.357 3.939,1.347 3.93,0.004 3.986,-2.655 3.014,-3.994 1.014,-4.013 -0.1,-4.021 -0.867,-3.685 -1.292,-3.002 -1.703,-2.324 -1.904,-1.323 -1.896,0"
             style="fill:#ffffff;fill-opacity:1;fill-rule:nonzero;stroke:none"
             id="path160" /></g></g></g></g></svg>